<?xml version="1.0" encoding="UTF-8"?>
<svg height="360" width="360" viewBox="0 0 360 360" xmlns="http://www.w3.org/2000/svg"><rect x="55" y="55" height="10" width="10" fill="#000000"></rect><rect x="65" y="55" height="10" width="10" fill="#000000"></rect><rect x="75" y="55" height="10" width="10" fill="#000000"></rect><rect x="85" y="55" height="10" width="10" fill="#000000"></rect><rect x="95" y="55" height="10" width="10" fill="#000000"></rect><rect x="105" y="55" height="10" width="10" fill="#000000"></rect><rect x="115" y="55" height="10" width="10" fill="#000000"></rect><rect x="135" y="55" height="10" width="10" fill="#000000"></rect><rect x="155" y="55" height="10" width="10" fill="#000000"></rect><rect x="165" y="55" height="10" width="10" fill="#000000"></rect><rect x="175" y="55" height="10" width="10" fill="#000000"></rect><rect x="195" y="55" height="10" width="10" fill="#000000"></rect><rect x="235" y="55" height="10" width="10" fill="#000000"></rect><rect x="245" y="55" height="10" width="10" fill="#000000"></rect><rect x="255" y="55" height="10" width="10" fill="#000000"></rect><rect x="265" y="55" height="10" width="10" fill="#000000"></rect><rect x="275" y="55" height="10" width="10" fill="#000000"></rect><rect x="285" y="55" height="10" width="10" fill="#000000"></rect><rect x="295" y="55" height="10" width="10" fill="#000000"></rect><rect x="55" y="65" height="10" width="10" fill="#000000"></rect><rect x="115" y="65" height="10" width="10" fill="#000000"></rect><rect x="145" y="65" height="10" width="10" fill="#000000"></rect><rect x="155" y="65" height="10" width="10" fill="#000000"></rect><rect x="175" y="65" height="10" width="10" fill="#000000"></rect><rect x="235" y="65" height="10" width="10" fill="#000000"></rect><rect x="295" y="65" height="10" width="10" fill="#000000"></rect><rect x="55" y="75" height="10" width="10" fill="#000000"></rect><rect x="75" y="75" height="10" width="10" fill="#000000"></rect><rect x="85" y="75" height="10" width="10" fill="#000000"></rect><rect x="95" y="75" height="10" width="10" fill="#000000"></rect><rect x="115" y="75" height="10" width="10" fill="#000000"></rect><rect x="155" y="75" height="10" width="10" fill="#000000"></rect><rect x="165" y="75" height="10" width="10" fill="#000000"></rect><rect x="185" y="75" height="10" width="10" fill="#000000"></rect><rect x="195" y="75" height="10" width="10" fill="#000000"></rect><rect x="215" y="75" height="10" width="10" fill="#000000"></rect><rect x="235" y="75" height="10" width="10" fill="#000000"></rect><rect x="255" y="75" height="10" width="10" fill="#000000"></rect><rect x="265" y="75" height="10" width="10" fill="#000000"></rect><rect x="275" y="75" height="10" width="10" fill="#000000"></rect><rect x="295" y="75" height="10" width="10" fill="#000000"></rect><rect x="55" y="85" height="10" width="10" fill="#000000"></rect><rect x="75" y="85" height="10" width="10" fill="#000000"></rect><rect x="85" y="85" height="10" width="10" fill="#000000"></rect><rect x="95" y="85" height="10" width="10" fill="#000000"></rect><rect x="115" y="85" height="10" width="10" fill="#000000"></rect><rect x="165" y="85" height="10" width="10" fill="#000000"></rect><rect x="175" y="85" height="10" width="10" fill="#000000"></rect><rect x="185" y="85" height="10" width="10" fill="#000000"></rect><rect x="205" y="85" height="10" width="10" fill="#000000"></rect><rect x="215" y="85" height="10" width="10" fill="#000000"></rect><rect x="235" y="85" height="10" width="10" fill="#000000"></rect><rect x="255" y="85" height="10" width="10" fill="#000000"></rect><rect x="265" y="85" height="10" width="10" fill="#000000"></rect><rect x="275" y="85" height="10" width="10" fill="#000000"></rect><rect x="295" y="85" height="10" width="10" fill="#000000"></rect><rect x="55" y="95" height="10" width="10" fill="#000000"></rect><rect x="75" y="95" height="10" width="10" fill="#000000"></rect><rect x="85" y="95" height="10" width="10" fill="#000000"></rect><rect x="95" y="95" height="10" width="10" fill="#000000"></rect><rect x="115" y="95" height="10" width="10" fill="#000000"></rect><rect x="145" y="95" height="10" width="10" fill="#000000"></rect><rect x="195" y="95" height="10" width="10" fill="#000000"></rect><rect x="205" y="95" height="10" width="10" fill="#000000"></rect><rect x="215" y="95" height="10" width="10" fill="#000000"></rect><rect x="235" y="95" height="10" width="10" fill="#000000"></rect><rect x="255" y="95" height="10" width="10" fill="#000000"></rect><rect x="265" y="95" height="10" width="10" fill="#000000"></rect><rect x="275" y="95" height="10" width="10" fill="#000000"></rect><rect x="295" y="95" height="10" width="10" fill="#000000"></rect><rect x="55" y="105" height="10" width="10" fill="#000000"></rect><rect x="115" y="105" height="10" width="10" fill="#000000"></rect><rect x="155" y="105" height="10" width="10" fill="#000000"></rect><rect x="165" y="105" height="10" width="10" fill="#000000"></rect><rect x="195" y="105" height="10" width="10" fill="#000000"></rect><rect x="235" y="105" height="10" width="10" fill="#000000"></rect><rect x="295" y="105" height="10" width="10" fill="#000000"></rect><rect x="55" y="115" height="10" width="10" fill="#000000"></rect><rect x="65" y="115" height="10" width="10" fill="#000000"></rect><rect x="75" y="115" height="10" width="10" fill="#000000"></rect><rect x="85" y="115" height="10" width="10" fill="#000000"></rect><rect x="95" y="115" height="10" width="10" fill="#000000"></rect><rect x="105" y="115" height="10" width="10" fill="#000000"></rect><rect x="115" y="115" height="10" width="10" fill="#000000"></rect><rect x="135" y="115" height="10" width="10" fill="#000000"></rect><rect x="155" y="115" height="10" width="10" fill="#000000"></rect><rect x="175" y="115" height="10" width="10" fill="#000000"></rect><rect x="195" y="115" height="10" width="10" fill="#000000"></rect><rect x="215" y="115" height="10" width="10" fill="#000000"></rect><rect x="235" y="115" height="10" width="10" fill="#000000"></rect><rect x="245" y="115" height="10" width="10" fill="#000000"></rect><rect x="255" y="115" height="10" width="10" fill="#000000"></rect><rect x="265" y="115" height="10" width="10" fill="#000000"></rect><rect x="275" y="115" height="10" width="10" fill="#000000"></rect><rect x="285" y="115" height="10" width="10" fill="#000000"></rect><rect x="295" y="115" height="10" width="10" fill="#000000"></rect><rect x="135" y="125" height="10" width="10" fill="#000000"></rect><rect x="155" y="125" height="10" width="10" fill="#000000"></rect><rect x="185" y="125" height="10" width="10" fill="#000000"></rect><rect x="205" y="125" height="10" width="10" fill="#000000"></rect><rect x="215" y="125" height="10" width="10" fill="#000000"></rect><rect x="55" y="135" height="10" width="10" fill="#000000"></rect><rect x="65" y="135" height="10" width="10" fill="#000000"></rect><rect x="85" y="135" height="10" width="10" fill="#000000"></rect><rect x="95" y="135" height="10" width="10" fill="#000000"></rect><rect x="115" y="135" height="10" width="10" fill="#000000"></rect><rect x="145" y="135" height="10" width="10" fill="#000000"></rect><rect x="155" y="135" height="10" width="10" fill="#000000"></rect><rect x="175" y="135" height="10" width="10" fill="#000000"></rect><rect x="195" y="135" height="10" width="10" fill="#000000"></rect><rect x="215" y="135" height="10" width="10" fill="#000000"></rect><rect x="235" y="135" height="10" width="10" fill="#000000"></rect><rect x="295" y="135" height="10" width="10" fill="#000000"></rect><rect x="55" y="145" height="10" width="10" fill="#000000"></rect><rect x="95" y="145" height="10" width="10" fill="#000000"></rect><rect x="105" y="145" height="10" width="10" fill="#000000"></rect><rect x="135" y="145" height="10" width="10" fill="#000000"></rect><rect x="145" y="145" height="10" width="10" fill="#000000"></rect><rect x="165" y="145" height="10" width="10" fill="#000000"></rect><rect x="205" y="145" height="10" width="10" fill="#000000"></rect><rect x="215" y="145" height="10" width="10" fill="#000000"></rect><rect x="225" y="145" height="10" width="10" fill="#000000"></rect><rect x="245" y="145" height="10" width="10" fill="#000000"></rect><rect x="255" y="145" height="10" width="10" fill="#000000"></rect><rect x="265" y="145" height="10" width="10" fill="#000000"></rect><rect x="275" y="145" height="10" width="10" fill="#000000"></rect><rect x="285" y="145" height="10" width="10" fill="#000000"></rect><rect x="55" y="155" height="10" width="10" fill="#000000"></rect><rect x="105" y="155" height="10" width="10" fill="#000000"></rect><rect x="115" y="155" height="10" width="10" fill="#000000"></rect><rect x="155" y="155" height="10" width="10" fill="#000000"></rect><rect x="165" y="155" height="10" width="10" fill="#000000"></rect><rect x="195" y="155" height="10" width="10" fill="#000000"></rect><rect x="205" y="155" height="10" width="10" fill="#000000"></rect><rect x="215" y="155" height="10" width="10" fill="#000000"></rect><rect x="235" y="155" height="10" width="10" fill="#000000"></rect><rect x="265" y="155" height="10" width="10" fill="#000000"></rect><rect x="295" y="155" height="10" width="10" fill="#000000"></rect><rect x="55" y="165" height="10" width="10" fill="#000000"></rect><rect x="75" y="165" height="10" width="10" fill="#000000"></rect><rect x="85" y="165" height="10" width="10" fill="#000000"></rect><rect x="95" y="165" height="10" width="10" fill="#000000"></rect><rect x="125" y="165" height="10" width="10" fill="#000000"></rect><rect x="145" y="165" height="10" width="10" fill="#000000"></rect><rect x="155" y="165" height="10" width="10" fill="#000000"></rect><rect x="175" y="165" height="10" width="10" fill="#000000"></rect><rect x="235" y="165" height="10" width="10" fill="#000000"></rect><rect x="265" y="165" height="10" width="10" fill="#000000"></rect><rect x="275" y="165" height="10" width="10" fill="#000000"></rect><rect x="285" y="165" height="10" width="10" fill="#000000"></rect><rect x="295" y="165" height="10" width="10" fill="#000000"></rect><rect x="65" y="175" height="10" width="10" fill="#000000"></rect><rect x="75" y="175" height="10" width="10" fill="#000000"></rect><rect x="95" y="175" height="10" width="10" fill="#000000"></rect><rect x="115" y="175" height="10" width="10" fill="#000000"></rect><rect x="125" y="175" height="10" width="10" fill="#000000"></rect><rect x="145" y="175" height="10" width="10" fill="#000000"></rect><rect x="165" y="175" height="10" width="10" fill="#000000"></rect><rect x="185" y="175" height="10" width="10" fill="#000000"></rect><rect x="205" y="175" height="10" width="10" fill="#000000"></rect><rect x="215" y="175" height="10" width="10" fill="#000000"></rect><rect x="235" y="175" height="10" width="10" fill="#000000"></rect><rect x="245" y="175" height="10" width="10" fill="#000000"></rect><rect x="295" y="175" height="10" width="10" fill="#000000"></rect><rect x="55" y="185" height="10" width="10" fill="#000000"></rect><rect x="85" y="185" height="10" width="10" fill="#000000"></rect><rect x="95" y="185" height="10" width="10" fill="#000000"></rect><rect x="125" y="185" height="10" width="10" fill="#000000"></rect><rect x="165" y="185" height="10" width="10" fill="#000000"></rect><rect x="185" y="185" height="10" width="10" fill="#000000"></rect><rect x="205" y="185" height="10" width="10" fill="#000000"></rect><rect x="215" y="185" height="10" width="10" fill="#000000"></rect><rect x="255" y="185" height="10" width="10" fill="#000000"></rect><rect x="285" y="185" height="10" width="10" fill="#000000"></rect><rect x="55" y="195" height="10" width="10" fill="#000000"></rect><rect x="65" y="195" height="10" width="10" fill="#000000"></rect><rect x="75" y="195" height="10" width="10" fill="#000000"></rect><rect x="105" y="195" height="10" width="10" fill="#000000"></rect><rect x="115" y="195" height="10" width="10" fill="#000000"></rect><rect x="125" y="195" height="10" width="10" fill="#000000"></rect><rect x="135" y="195" height="10" width="10" fill="#000000"></rect><rect x="195" y="195" height="10" width="10" fill="#000000"></rect><rect x="205" y="195" height="10" width="10" fill="#000000"></rect><rect x="225" y="195" height="10" width="10" fill="#000000"></rect><rect x="255" y="195" height="10" width="10" fill="#000000"></rect><rect x="265" y="195" height="10" width="10" fill="#000000"></rect><rect x="275" y="195" height="10" width="10" fill="#000000"></rect><rect x="285" y="195" height="10" width="10" fill="#000000"></rect><rect x="295" y="195" height="10" width="10" fill="#000000"></rect><rect x="55" y="205" height="10" width="10" fill="#000000"></rect><rect x="85" y="205" height="10" width="10" fill="#000000"></rect><rect x="105" y="205" height="10" width="10" fill="#000000"></rect><rect x="125" y="205" height="10" width="10" fill="#000000"></rect><rect x="135" y="205" height="10" width="10" fill="#000000"></rect><rect x="245" y="205" height="10" width="10" fill="#000000"></rect><rect x="265" y="205" height="10" width="10" fill="#000000"></rect><rect x="275" y="205" height="10" width="10" fill="#000000"></rect><rect x="295" y="205" height="10" width="10" fill="#000000"></rect><rect x="55" y="215" height="10" width="10" fill="#000000"></rect><rect x="75" y="215" height="10" width="10" fill="#000000"></rect><rect x="85" y="215" height="10" width="10" fill="#000000"></rect><rect x="105" y="215" height="10" width="10" fill="#000000"></rect><rect x="115" y="215" height="10" width="10" fill="#000000"></rect><rect x="175" y="215" height="10" width="10" fill="#000000"></rect><rect x="185" y="215" height="10" width="10" fill="#000000"></rect><rect x="215" y="215" height="10" width="10" fill="#000000"></rect><rect x="225" y="215" height="10" width="10" fill="#000000"></rect><rect x="235" y="215" height="10" width="10" fill="#000000"></rect><rect x="245" y="215" height="10" width="10" fill="#000000"></rect><rect x="255" y="215" height="10" width="10" fill="#000000"></rect><rect x="275" y="215" height="10" width="10" fill="#000000"></rect><rect x="285" y="215" height="10" width="10" fill="#000000"></rect><rect x="135" y="225" height="10" width="10" fill="#000000"></rect><rect x="145" y="225" height="10" width="10" fill="#000000"></rect><rect x="155" y="225" height="10" width="10" fill="#000000"></rect><rect x="185" y="225" height="10" width="10" fill="#000000"></rect><rect x="215" y="225" height="10" width="10" fill="#000000"></rect><rect x="255" y="225" height="10" width="10" fill="#000000"></rect><rect x="275" y="225" height="10" width="10" fill="#000000"></rect><rect x="285" y="225" height="10" width="10" fill="#000000"></rect><rect x="55" y="235" height="10" width="10" fill="#000000"></rect><rect x="65" y="235" height="10" width="10" fill="#000000"></rect><rect x="75" y="235" height="10" width="10" fill="#000000"></rect><rect x="85" y="235" height="10" width="10" fill="#000000"></rect><rect x="95" y="235" height="10" width="10" fill="#000000"></rect><rect x="105" y="235" height="10" width="10" fill="#000000"></rect><rect x="115" y="235" height="10" width="10" fill="#000000"></rect><rect x="145" y="235" height="10" width="10" fill="#000000"></rect><rect x="165" y="235" height="10" width="10" fill="#000000"></rect><rect x="185" y="235" height="10" width="10" fill="#000000"></rect><rect x="195" y="235" height="10" width="10" fill="#000000"></rect><rect x="215" y="235" height="10" width="10" fill="#000000"></rect><rect x="235" y="235" height="10" width="10" fill="#000000"></rect><rect x="255" y="235" height="10" width="10" fill="#000000"></rect><rect x="295" y="235" height="10" width="10" fill="#000000"></rect><rect x="55" y="245" height="10" width="10" fill="#000000"></rect><rect x="115" y="245" height="10" width="10" fill="#000000"></rect><rect x="185" y="245" height="10" width="10" fill="#000000"></rect><rect x="205" y="245" height="10" width="10" fill="#000000"></rect><rect x="215" y="245" height="10" width="10" fill="#000000"></rect><rect x="255" y="245" height="10" width="10" fill="#000000"></rect><rect x="285" y="245" height="10" width="10" fill="#000000"></rect><rect x="295" y="245" height="10" width="10" fill="#000000"></rect><rect x="55" y="255" height="10" width="10" fill="#000000"></rect><rect x="75" y="255" height="10" width="10" fill="#000000"></rect><rect x="85" y="255" height="10" width="10" fill="#000000"></rect><rect x="95" y="255" height="10" width="10" fill="#000000"></rect><rect x="115" y="255" height="10" width="10" fill="#000000"></rect><rect x="135" y="255" height="10" width="10" fill="#000000"></rect><rect x="145" y="255" height="10" width="10" fill="#000000"></rect><rect x="155" y="255" height="10" width="10" fill="#000000"></rect><rect x="175" y="255" height="10" width="10" fill="#000000"></rect><rect x="195" y="255" height="10" width="10" fill="#000000"></rect><rect x="205" y="255" height="10" width="10" fill="#000000"></rect><rect x="215" y="255" height="10" width="10" fill="#000000"></rect><rect x="225" y="255" height="10" width="10" fill="#000000"></rect><rect x="235" y="255" height="10" width="10" fill="#000000"></rect><rect x="245" y="255" height="10" width="10" fill="#000000"></rect><rect x="255" y="255" height="10" width="10" fill="#000000"></rect><rect x="285" y="255" height="10" width="10" fill="#000000"></rect><rect x="55" y="265" height="10" width="10" fill="#000000"></rect><rect x="75" y="265" height="10" width="10" fill="#000000"></rect><rect x="85" y="265" height="10" width="10" fill="#000000"></rect><rect x="95" y="265" height="10" width="10" fill="#000000"></rect><rect x="115" y="265" height="10" width="10" fill="#000000"></rect><rect x="135" y="265" height="10" width="10" fill="#000000"></rect><rect x="165" y="265" height="10" width="10" fill="#000000"></rect><rect x="185" y="265" height="10" width="10" fill="#000000"></rect><rect x="195" y="265" height="10" width="10" fill="#000000"></rect><rect x="225" y="265" height="10" width="10" fill="#000000"></rect><rect x="235" y="265" height="10" width="10" fill="#000000"></rect><rect x="285" y="265" height="10" width="10" fill="#000000"></rect><rect x="295" y="265" height="10" width="10" fill="#000000"></rect><rect x="55" y="275" height="10" width="10" fill="#000000"></rect><rect x="75" y="275" height="10" width="10" fill="#000000"></rect><rect x="85" y="275" height="10" width="10" fill="#000000"></rect><rect x="95" y="275" height="10" width="10" fill="#000000"></rect><rect x="115" y="275" height="10" width="10" fill="#000000"></rect><rect x="165" y="275" height="10" width="10" fill="#000000"></rect><rect x="175" y="275" height="10" width="10" fill="#000000"></rect><rect x="215" y="275" height="10" width="10" fill="#000000"></rect><rect x="255" y="275" height="10" width="10" fill="#000000"></rect><rect x="265" y="275" height="10" width="10" fill="#000000"></rect><rect x="275" y="275" height="10" width="10" fill="#000000"></rect><rect x="285" y="275" height="10" width="10" fill="#000000"></rect><rect x="295" y="275" height="10" width="10" fill="#000000"></rect><rect x="55" y="285" height="10" width="10" fill="#000000"></rect><rect x="115" y="285" height="10" width="10" fill="#000000"></rect><rect x="135" y="285" height="10" width="10" fill="#000000"></rect><rect x="145" y="285" height="10" width="10" fill="#000000"></rect><rect x="165" y="285" height="10" width="10" fill="#000000"></rect><rect x="225" y="285" height="10" width="10" fill="#000000"></rect><rect x="235" y="285" height="10" width="10" fill="#000000"></rect><rect x="245" y="285" height="10" width="10" fill="#000000"></rect><rect x="255" y="285" height="10" width="10" fill="#000000"></rect><rect x="275" y="285" height="10" width="10" fill="#000000"></rect><rect x="285" y="285" height="10" width="10" fill="#000000"></rect><rect x="295" y="285" height="10" width="10" fill="#000000"></rect><rect x="55" y="295" height="10" width="10" fill="#000000"></rect><rect x="65" y="295" height="10" width="10" fill="#000000"></rect><rect x="75" y="295" height="10" width="10" fill="#000000"></rect><rect x="85" y="295" height="10" width="10" fill="#000000"></rect><rect x="95" y="295" height="10" width="10" fill="#000000"></rect><rect x="105" y="295" height="10" width="10" fill="#000000"></rect><rect x="115" y="295" height="10" width="10" fill="#000000"></rect><rect x="135" y="295" height="10" width="10" fill="#000000"></rect><rect x="175" y="295" height="10" width="10" fill="#000000"></rect><rect x="205" y="295" height="10" width="10" fill="#000000"></rect><rect x="215" y="295" height="10" width="10" fill="#000000"></rect><rect x="235" y="295" height="10" width="10" fill="#000000"></rect><rect x="265" y="295" height="10" width="10" fill="#000000"></rect><rect x="295" y="295" height="10" width="10" fill="#000000"></rect></svg>
